<svg width="124" height="128" viewBox="0 0 124 128" fill="none" xmlns="http://www.w3.org/2000/svg">
<rect y="13.1909" width="121.363" height="114.224" rx="5" fill="#019EF7"/>
<path d="M22.1523 43.0938C22.1523 37.9766 23.7734 33.7578 27.0156 30.4375C30.2969 27.1172 34.4961 25.457 39.6133 25.457C44.8086 25.457 49.0078 27.1367 52.2109 30.4961C55.4531 33.8164 57.0742 38.1328 57.0742 43.4453V47.6055C57.0742 52.7617 55.4336 56.9805 52.1523 60.2617C48.9102 63.5039 44.7695 65.125 39.7305 65.125C34.6523 65.125 30.4531 63.5039 27.1328 60.2617C23.8125 56.9805 22.1523 52.625 22.1523 47.1953V43.0938ZM30.2383 47.6055C30.2383 50.6523 31.0977 53.1719 32.8164 55.1641C34.5352 57.1172 36.8398 58.0938 39.7305 58.0938C42.5039 58.0938 44.7305 57.1367 46.4102 55.2227C48.1289 53.3086 48.9883 50.6914 48.9883 47.3711V43.0938C48.9883 40.0469 48.1484 37.5273 46.4688 35.5352C44.7891 33.543 42.5039 32.5469 39.6133 32.5469C36.7227 32.5469 34.4375 33.543 32.7578 35.5352C31.0781 37.5273 30.2383 40.125 30.2383 43.3281V47.6055ZM63.6953 91.082C63.6953 85.9648 65.3164 81.7656 68.5586 78.4844C71.8398 75.1641 76.0391 73.5039 81.1562 73.5039C86.2734 73.5039 90.4727 75.1445 93.7539 78.4258C97.0352 81.707 98.6758 86.0625 98.6758 91.4922V95.6523C98.6758 100.77 97.0352 104.988 93.7539 108.309C90.5117 111.59 86.3516 113.23 81.2734 113.23C76.1953 113.23 71.9961 111.609 68.6758 108.367C65.3555 105.086 63.6953 100.73 63.6953 95.3008V91.082ZM71.7812 95.6523C71.7812 98.7383 72.6406 101.277 74.3594 103.27C76.0781 105.223 78.3828 106.199 81.2734 106.199C84.0859 106.199 86.332 105.242 88.0117 103.328C89.6914 101.375 90.5312 98.7383 90.5312 95.418V91.082C90.5312 87.9961 89.6719 85.4766 87.9531 83.5234C86.2734 81.5703 84.0078 80.5938 81.1562 80.5938C78.3828 80.5938 76.1172 81.5703 74.3594 83.5234C72.6406 85.4375 71.7812 88.0352 71.7812 91.3164V95.6523ZM42.1914 105.555L36.0391 101.688L77.6992 35.0078L83.8516 38.875L42.1914 105.555Z" fill="white"/>
</svg>
