<svg width="20" height="19" viewBox="0 0 20 19" fill="none" xmlns="http://www.w3.org/2000/svg">
<rect width="19" height="19" rx="5" fill="black" fill-opacity="0.79"/>
<path d="M9.61523 7.10938C9.61523 6.59766 9.77734 6.17578 10.1016 5.84375C10.4297 5.51172 10.8496 5.3457 11.3613 5.3457C11.8809 5.3457 12.3008 5.51367 12.6211 5.84961C12.9453 6.18164 13.1074 6.61328 13.1074 7.14453V7.56055C13.1074 8.07617 12.9434 8.49805 12.6152 8.82617C12.291 9.15039 11.877 9.3125 11.373 9.3125C10.8652 9.3125 10.4453 9.15039 10.1133 8.82617C9.78125 8.49805 9.61523 8.0625 9.61523 7.51953V7.10938ZM10.4238 7.56055C10.4238 7.86523 10.5098 8.11719 10.6816 8.31641C10.8535 8.51172 11.084 8.60938 11.373 8.60938C11.6504 8.60938 11.873 8.51367 12.041 8.32227C12.2129 8.13086 12.2988 7.86914 12.2988 7.53711V7.10938C12.2988 6.80469 12.2148 6.55273 12.0469 6.35352C11.8789 6.1543 11.6504 6.05469 11.3613 6.05469C11.0723 6.05469 10.8438 6.1543 10.6758 6.35352C10.5078 6.55273 10.4238 6.8125 10.4238 7.13281V7.56055ZM13.7695 11.9082C13.7695 11.3965 13.9316 10.9766 14.2559 10.6484C14.584 10.3164 15.0039 10.1504 15.5156 10.1504C16.0273 10.1504 16.4473 10.3145 16.7754 10.6426C17.1035 10.9707 17.2676 11.4062 17.2676 11.9492V12.3652C17.2676 12.877 17.1035 13.2988 16.7754 13.6309C16.4512 13.959 16.0352 14.123 15.5273 14.123C15.0195 14.123 14.5996 13.9609 14.2676 13.6367C13.9355 13.3086 13.7695 12.873 13.7695 12.3301V11.9082ZM14.5781 12.3652C14.5781 12.6738 14.6641 12.9277 14.8359 13.127C15.0078 13.3223 15.2383 13.4199 15.5273 13.4199C15.8086 13.4199 16.0332 13.3242 16.2012 13.1328C16.3691 12.9375 16.4531 12.6738 16.4531 12.3418V11.9082C16.4531 11.5996 16.3672 11.3477 16.1953 11.1523C16.0273 10.957 15.8008 10.8594 15.5156 10.8594C15.2383 10.8594 15.0117 10.957 14.8359 11.1523C14.6641 11.3438 14.5781 11.6035 14.5781 11.9316V12.3652ZM11.6191 13.3555L11.0039 12.9688L15.1699 6.30078L15.7852 6.6875L11.6191 13.3555Z" fill="white"/>
<path d="M5.02148 9.42383H7.40039V10.4492H5.02148V13.1445H3.93164V10.4492H1.55273V9.42383H3.93164V6.93359H5.02148V9.42383Z" fill="white"/>
</svg>
